<svg xmlns="http://www.w3.org/2000/svg" fill="none" viewBox="0 0 24 24" id="Appwrite-Icon--Streamline-Svg-Logos" height="24" width="24">
  <desc>
    Appwrite Icon Streamline Icon: https://streamlinehq.com
  </desc>
  <path fill="#f02e65" d="M12.001725 5.2272c1.153075 -0.669025 2.49275 -1.052125 3.921925 -1.052125C20.246075 4.175075 23.75 7.679 23.75 12.001425c0 4.322425 -3.503925 7.82635 -7.82635 7.82635 -1.428625 0 -2.7678 -0.382775 -3.9206 -1.05135 -2.640525 1.5271 -6.048475 1.425175 -8.636475 -0.527775C1.1324475 16.565175 -0.033275 13.817275 0.30889 11.040875 0.6510575 8.264475 2.4490775 5.881825 5.0251 4.791175c2.28115 -0.965825 4.8652 -0.78845 6.976625 0.436025ZM2.98695 8.157475C0.863995 10.97075 1.4236075 14.97235 4.236875 17.0953c2.813275 2.12295 6.81485 1.563325 8.9378 -1.249925 1.4221 -1.884525 1.640475 -4.302275 0.784025 -6.331375 -0.629125 -1.481 -1.801775 -2.67535 -3.267625 -3.332725l0.00335 -0.0031c-2.6563 -1.1951 -5.878825 -0.44395 -7.707475 1.9793Zm5.649175 1.104125c0.239475 0 0.317975 0.013725 0.30415 0.05515 -0.006775 0.01565 -0.026525 0.088625 -0.052925 0.19435l-0.0102 0.041125c-0.0262 0.106425 -0.0576 0.2389 -0.08895 0.37715 -0.050775 0.223025 -0.16085 0.688825 -0.274125 1.1667l-0.020625 0.08695c-0.034375 0.145 -0.068725 0.289825 -0.1015 0.42805 -0.147375 0.6219 -0.331725 1.4144 -0.4148 1.75985l-0.142675 0.635975h-0.318c-0.17495 0 -0.317875 -0.018675 -0.317875 -0.04155 0 -0.08295 0.138225 -0.70955 0.3688 -1.66315 0.119575 -0.520625 0.331475 -1.40055 0.46525 -1.958025 0.07185 -0.3109 0.14085 -0.594575 0.189475 -0.788725l0.00975 -0.03885c0.0331 -0.131425 0.0549 -0.213625 0.058675 -0.222975 0.00905 -0.0183 0.1658 -0.032025 0.345575 -0.032025Zm-2.008725 1.566225c0.211925 0 0.386975 0.01385 0.386975 0.032275 0 0.023 -0.1659 0.216725 -0.36855 0.442375 -0.202775 0.221175 -0.368675 0.4284 -0.368675 0.460675 0 0.027575 0.179625 0.248875 0.396375 0.478975l0.396125 0.4285h-0.8385l-0.294875 -0.31315c-0.161225 -0.1705 -0.350375 -0.377975 -0.41925 -0.4608l-0.1245 -0.147375 0.423825 -0.4608 0.42865 -0.460675h0.3824Zm3.220475 0 0.41445 0.447075c0.23045 0.24405 0.414675 0.460675 0.414675 0.48355 0 0.027575 -0.17495 0.23985 -0.391675 0.4792l-0.39145 0.4284 -0.428525 0.004575h-0.428275l0.382275 -0.41925c0.2118 -0.22575 0.387 -0.442125 0.39615 -0.4745 0.01385 -0.059725 -0.2395 -0.364 -0.59915 -0.723275 -0.09655 -0.096825 -0.17495 -0.184225 -0.17495 -0.1982 0 -0.013725 0.17965 -0.027575 0.4054 -0.027575h0.401075Z" stroke-width="0.25"></path>
</svg>