<?xml version="1.0" encoding="UTF-8"?> <svg xmlns="http://www.w3.org/2000/svg" width="42" height="25" viewBox="0 0 42 25" fill="none"><path d="M11.938 9.12212C11.938 9.63037 11.9933 10.0425 12.09 10.3447C12.2005 10.6469 12.3387 10.9765 12.5321 11.3337C12.6012 11.4436 12.6288 11.5534 12.6288 11.6496C12.6288 11.787 12.5459 11.9243 12.3663 12.0617L11.4959 12.6386C11.3716 12.721 11.2472 12.7622 11.1367 12.7622C10.9986 12.7622 10.8604 12.6936 10.7222 12.5699C10.5288 12.3639 10.363 12.1441 10.2249 11.9243C10.0867 11.6908 9.94856 11.4298 9.79659 11.1139C8.71896 12.3776 7.36501 13.0095 5.73475 13.0095C4.57422 13.0095 3.64856 12.6798 2.97159 12.0205C2.29461 11.3611 1.94922 10.482 1.94922 9.38311C1.94922 8.21553 2.36369 7.26773 3.20646 6.55344C4.04922 5.83916 5.1683 5.48201 6.59132 5.48201C7.06106 5.48201 7.54461 5.52322 8.0558 5.5919C8.56698 5.66059 9.09198 5.77048 9.64461 5.8941V4.89136C9.64461 3.8474 9.42356 3.11938 8.99527 2.69355C8.55317 2.26773 7.80711 2.06168 6.7433 2.06168C6.25975 2.06168 5.76238 2.11663 5.25119 2.24026C4.74001 2.36388 4.24264 2.51498 3.75909 2.70729C3.53803 2.80344 3.37225 2.85839 3.27553 2.88586C3.17882 2.91333 3.10975 2.92707 3.05448 2.92707C2.86106 2.92707 2.76435 2.78971 2.76435 2.50125V1.82817C2.76435 1.60839 2.79198 1.44355 2.86106 1.3474C2.93014 1.25124 3.05448 1.15509 3.2479 1.05894C3.73146 0.811684 4.31172 0.60564 4.98869 0.440805C5.66567 0.262234 6.38409 0.179816 7.14396 0.179816C8.78803 0.179816 9.99001 0.550695 10.7637 1.29245C11.5236 2.03421 11.9104 3.16059 11.9104 4.67158V9.12212H11.938ZM6.32882 11.21C6.78475 11.21 7.25448 11.1276 7.75185 10.9628C8.24922 10.7979 8.69132 10.4958 9.06435 10.0837C9.2854 9.82267 9.45119 9.53421 9.53409 9.20454C9.61698 8.87487 9.67225 8.47652 9.67225 8.00949V7.43256C9.27159 7.33641 8.8433 7.25399 8.40119 7.19905C7.95909 7.1441 7.5308 7.11663 7.10251 7.11663C6.17685 7.11663 5.49988 7.2952 5.04396 7.66608C4.58803 8.03696 4.36698 8.55894 4.36698 9.24575C4.36698 9.89136 4.53277 10.3721 4.87817 10.7018C5.20975 11.0452 5.6933 11.21 6.32882 11.21ZM17.4229 12.6936C17.1742 12.6936 17.0084 12.6523 16.8979 12.5562C16.7874 12.4738 16.6907 12.2815 16.6078 12.0205L13.3611 1.40234C13.2782 1.12762 13.2367 0.949047 13.2367 0.852893C13.2367 0.633113 13.3472 0.509487 13.5683 0.509487H14.9222C15.1847 0.509487 15.3644 0.550695 15.4611 0.646849C15.5716 0.729267 15.6545 0.921575 15.7374 1.18256L18.0584 10.276L20.2137 1.18256C20.2828 0.907838 20.3657 0.729267 20.4762 0.646849C20.5867 0.564432 20.7801 0.509487 21.0288 0.509487H22.1341C22.3966 0.509487 22.5762 0.550695 22.6867 0.646849C22.7972 0.729267 22.894 0.921575 22.9492 1.18256L25.1321 10.3859L27.5222 1.18256C27.6051 0.907838 27.7019 0.729267 27.7986 0.646849C27.9091 0.564432 28.0887 0.509487 28.3374 0.509487H29.6222C29.8433 0.509487 29.9676 0.619377 29.9676 0.852893C29.9676 0.921575 29.9538 0.990256 29.94 1.07267C29.9262 1.15509 29.8986 1.26498 29.8433 1.41608L26.5137 12.0342C26.4308 12.3089 26.3341 12.4875 26.2236 12.5699C26.113 12.6523 25.9334 12.7073 25.6986 12.7073H24.5104C24.2479 12.7073 24.0683 12.6661 23.9578 12.5699C23.8472 12.4738 23.7505 12.2952 23.6953 12.0205L21.5538 3.16059L19.4262 12.0067C19.3571 12.2815 19.2742 12.46 19.1637 12.5562C19.0532 12.6523 18.8597 12.6936 18.6111 12.6936H17.4229ZM35.1762 13.0644C34.4578 13.0644 33.7394 12.982 33.0486 12.8172C32.3578 12.6523 31.819 12.4738 31.4597 12.2677C31.2387 12.1441 31.0867 12.0067 31.0315 11.8831C30.9762 11.7595 30.9486 11.6221 30.9486 11.4985V10.7979C30.9486 10.5095 31.0591 10.3721 31.2663 10.3721C31.3492 10.3721 31.4321 10.3859 31.515 10.4133C31.5979 10.4408 31.7222 10.4958 31.8604 10.5507C32.3301 10.7567 32.8413 10.9216 33.3801 11.0315C33.9328 11.1414 34.4716 11.1963 35.0242 11.1963C35.8946 11.1963 36.5716 11.0452 37.0413 10.743C37.5111 10.4408 37.7597 10.0012 37.7597 9.43806C37.7597 9.05344 37.6354 8.73751 37.3867 8.47652C37.138 8.21553 36.6683 7.98201 35.9913 7.76223L33.988 7.1441C32.9795 6.82817 32.2334 6.36114 31.7775 5.743C31.3216 5.13861 31.0867 4.46553 31.0867 3.75124C31.0867 3.17432 31.2111 2.66608 31.4597 2.22652C31.7084 1.78696 32.04 1.40234 32.4545 1.10015C32.869 0.784212 33.3387 0.550695 33.8913 0.38586C34.444 0.221025 35.0242 0.152344 35.6321 0.152344C35.9361 0.152344 36.2538 0.16608 36.5578 0.207289C36.8755 0.248498 37.1657 0.303443 37.4558 0.358388C37.7321 0.427069 37.9946 0.49575 38.2433 0.578168C38.492 0.660586 38.6854 0.743003 38.8236 0.825421C39.017 0.935311 39.1551 1.0452 39.238 1.16883C39.3209 1.27872 39.3624 1.42982 39.3624 1.62212V2.26773C39.3624 2.55619 39.2519 2.70729 39.0446 2.70729C38.9341 2.70729 38.7545 2.65234 38.5196 2.54245C37.7321 2.18531 36.8479 2.00674 35.867 2.00674C35.0795 2.00674 34.4578 2.13037 34.0295 2.39135C33.6012 2.65234 33.3801 3.0507 33.3801 3.61388C33.3801 3.9985 33.5183 4.32817 33.7946 4.58916C34.0709 4.85015 34.5821 5.11114 35.3144 5.34465L37.2762 5.96278C38.2709 6.27872 38.9893 6.71828 39.4176 7.28147C39.8459 7.84465 40.0532 8.49026 40.0532 9.20454C40.0532 9.7952 39.9288 10.3309 39.694 10.7979C39.4453 11.265 39.1137 11.6771 38.6854 12.0067C38.2571 12.3501 37.7459 12.5974 37.1519 12.776C36.5301 12.9683 35.8808 13.0644 35.1762 13.0644Z" fill="#0D99FF"></path><path fill-rule="evenodd" clip-rule="evenodd" d="M37.7862 19.7404C33.2408 23.0783 26.6369 24.8503 20.9586 24.8503C13.0007 24.8503 5.83029 21.9245 0.414497 17.0618C-0.0137921 16.6772 0.37305 16.1552 0.884234 16.4574C6.74213 19.8366 13.9678 21.8833 21.4421 21.8833C26.4849 21.8833 32.025 20.8393 37.1231 18.6965C37.8829 18.353 38.5323 19.191 37.7862 19.7404Z" fill="#0D99FF"></path><path fill-rule="evenodd" clip-rule="evenodd" d="M39.6783 17.5985C39.0981 16.8568 35.8375 17.2414 34.3592 17.42C33.9171 17.4749 33.8481 17.0903 34.2487 16.8018C36.8461 14.9887 41.1152 15.5106 41.6125 16.115C42.1099 16.7332 41.4744 20.9777 39.0428 23.0106C38.6698 23.3266 38.3106 23.1617 38.4764 22.7496C39.029 21.3898 40.2586 18.3266 39.6783 17.5985Z" fill="#0D99FF"></path></svg> 