<?xml version="1.0" encoding="UTF-8"?> <svg xmlns="http://www.w3.org/2000/svg" width="67" height="11" viewBox="0 0 67 11" fill="none"><g clip-path="url(#clip0_9872_40310)"><path d="M0.285106 5.06309C0.522695 3.80937 1.6156 2.94141 3.13617 2.94141C4.89433 2.94141 6.27234 3.71293 6.27234 6.12393V10.6084H4.75177L4.5617 9.644C4.03901 10.3191 3.32624 10.7531 2.28085 10.7531C0.997873 10.7531 0 9.93332 0 8.4385C0 6.94368 1.3305 5.97927 3.18369 5.97927H4.41915V5.64173C4.41915 4.77377 3.80142 4.53267 3.08865 4.53267C2.56596 4.53267 2.04326 4.72555 1.80567 5.40063L0.285106 5.06309ZM2.70851 9.1618C3.56383 9.1618 4.41915 8.58316 4.41915 7.61876V7.4741H3.23121C2.4234 7.42588 1.94823 7.76342 1.94823 8.4385C1.94823 8.77604 2.23333 9.1618 2.70851 9.1618Z" fill="#0D99FF"></path><path d="M36.1132 5.06309C36.3508 3.80937 37.4437 2.94141 38.9643 2.94141C40.7225 2.94141 42.1005 3.71293 42.1005 6.12393V10.6084H40.5799L40.3898 9.644C39.8671 10.3191 39.1544 10.7531 38.109 10.7531C36.826 10.7531 35.8281 9.93332 35.8281 8.4385C35.8281 6.94368 37.1586 5.97927 39.0118 5.97927H40.2473V5.64173C40.2473 4.77377 39.6295 4.53267 38.9168 4.53267C38.3941 4.53267 37.8714 4.72555 37.6338 5.40063L36.1132 5.06309ZM38.5366 9.1618C39.392 9.1618 40.2473 8.58316 40.2473 7.61876V7.4741H39.0118C38.204 7.4741 37.7288 7.76342 37.7288 8.4385C37.7764 8.77604 38.0615 9.1618 38.5366 9.1618Z" fill="#0D99FF"></path><path d="M43.7656 10.6566V3.03785H45.6188V4.29157C46.1415 3.37539 46.9968 2.94141 47.8046 2.94141C48.1373 2.94141 48.4224 2.98963 48.7075 3.08607L48.3748 4.82199C48.1373 4.67733 47.8997 4.58089 47.6146 4.58089C46.5217 4.58089 45.6188 5.49707 45.6188 7.90808V10.6084L43.7656 10.6566Z" fill="#0D99FF"></path><path d="M52.6511 2.94143C53.4114 2.94143 54.1242 3.32719 54.4568 3.76117V0H56.31V10.6566H54.4568V9.88512C54.2192 10.2709 53.5539 10.8013 52.6511 10.8013C50.4178 10.8013 49.2773 9.21004 49.2773 6.89547C49.2773 4.58091 50.4178 2.94143 52.6511 2.94143ZM52.9362 9.16182C53.8866 9.16182 54.6468 8.34208 54.6468 6.84725C54.6468 5.35243 53.8866 4.53269 52.9362 4.53269C51.9859 4.53269 51.2256 5.35243 51.2256 6.84725C51.2256 8.34208 51.9859 9.16182 52.9362 9.16182Z" fill="#0D99FF"></path><path d="M62.9613 4.14569L61.8684 5.15831C61.5358 4.67611 61.0131 4.48323 60.633 4.48323C60.2528 4.48323 59.9202 4.72433 59.9202 5.1101C59.9202 5.44764 60.2053 5.68874 60.633 5.8334C61.6783 6.21916 63.3415 6.5567 63.3415 8.14796C63.3415 9.54634 62.2961 10.6554 60.6805 10.6554C59.1124 10.6554 58.067 9.54634 57.7344 8.63016L59.2074 7.81042C59.4925 8.53372 59.9677 9.06414 60.728 9.06414C61.2982 9.06414 61.6783 8.77482 61.6783 8.2444C61.6783 7.61754 60.728 7.47288 59.8252 7.08712C59.0174 6.74958 58.3046 6.21916 58.3046 5.06187C58.3046 3.90459 59.2549 2.84375 60.6805 2.84375C61.6308 2.89197 62.5337 3.42239 62.9613 4.14569Z" fill="#0D99FF"></path><path d="M24.6615 3.03906L23.331 8.29505L22.048 3.03906H20.3374L19.1019 8.29505L18.0565 5.25719L17.914 5.59473L17.3438 7.57175L18.2941 10.6578H19.9097L21.1927 5.73939L22.4757 10.6578H24.1388L26.5147 3.03906H24.6615Z" fill="#0D99FF"></path><path d="M33.5488 3.03906L32.2183 8.29505L30.9354 3.03906H29.2247L27.9893 8.29505L26.9439 5.25719L26.8013 5.59473L26.1836 7.57175L27.1815 10.6578H28.7971L30.08 5.73939L31.363 10.6578H32.9786L35.402 3.03906H33.5488Z" fill="#0D99FF"></path><path d="M17.631 3.03906L15.2551 10.6096H13.6395L12.3565 5.73939L11.0735 10.6578H9.45792L7.08203 3.08728H8.93522L10.2657 8.29505L11.5487 3.08728H13.2593L14.5423 8.29505L15.8728 3.08728L17.631 3.03906Z" fill="#0D99FF"></path><path d="M65.7628 8.19922C66.4756 8.19922 66.9983 8.72964 66.9983 9.45294C66.9983 10.1762 66.4756 10.7067 65.7628 10.7067C65.05 10.7067 64.5273 10.1762 64.5273 9.45294C64.5273 8.72964 65.05 8.19922 65.7628 8.19922Z" fill="#0D99FF"></path></g><defs><clipPath id="clip0_9872_40310"><rect width="67" height="10.7531" fill="white"></rect></clipPath></defs></svg> 