<?xml version="1.0" encoding="UTF-8"?> <svg xmlns="http://www.w3.org/2000/svg" width="40" height="32" viewBox="0 0 40 32" fill="none"><path d="M22.8242 0V32L31.4401 27.0877L40.0005 32V0H22.8242Z" fill="#0D99FF"></path><path d="M30.539 22.1212C29.6674 22.1212 29.0094 21.8999 28.565 21.4573C28.1206 21.0091 27.8984 20.4088 27.8984 19.6563V16.1953H29.1974V19.6729C29.1974 20.0934 29.317 20.4143 29.5563 20.6356C29.7956 20.8569 30.1231 20.9676 30.539 20.9676C30.9492 20.9676 31.2711 20.8569 31.5047 20.6356C31.744 20.4143 31.8636 20.0934 31.8636 19.6729V16.1953H33.1625V19.6563C33.1625 20.4088 32.9432 21.0091 32.5045 21.4573C32.0658 21.8999 31.4107 22.1212 30.539 22.1212Z" fill="white"></path><path d="M34.0165 16.1953H35.3155V21.9967H34.0165V16.1953Z" fill="white"></path><path d="M0 0V32L8.59933 27.0877L17.1434 32V0H0Z" fill="#0D99FF"></path><path d="M4.28888 16.0871C4.34418 16.1994 4.39948 16.3117 4.42713 16.3678C4.51008 16.5082 4.56538 16.6485 4.64834 16.7889L5.78201 19.0906C5.80966 19.1468 5.86496 19.231 5.83731 19.3152L4.23358 22.4029C4.20593 22.4871 4.12297 22.5713 4.26123 22.5713H5.20135C5.3396 22.5713 5.3396 22.4871 5.42255 22.3187L6.50092 20.0169C6.58388 20.0731 7.4687 22.038 7.66225 22.459C7.6899 22.5432 7.71755 22.5432 7.82815 22.5432C7.99406 22.5432 8.82357 22.5713 8.90653 22.5152C8.93418 22.431 8.76827 22.1783 8.71297 22.0941L8.29821 21.2801C7.96641 20.6345 7.5793 19.8485 7.24749 19.231C7.19219 19.1187 7.19219 19.1187 7.35809 18.8099C7.44104 18.6696 7.49635 18.5292 7.5793 18.3889C7.6346 18.2485 7.71755 18.1362 7.77285 17.9959L8.40881 16.7608C8.46412 16.6485 8.74062 16.1433 8.79592 15.9748C8.82357 15.9187 8.71297 15.9187 8.65767 15.9187H7.82815C7.7452 15.9187 7.71755 15.9468 7.6899 16.0029L6.86038 17.7713C6.83273 17.8555 6.61153 18.3889 6.55623 18.4169C6.47327 18.1924 6.36267 17.9959 6.27972 17.7713L5.67141 16.4801C5.61611 16.3678 5.58846 16.2555 5.53315 16.1713C5.5055 16.1152 5.47785 16.059 5.4502 16.0029C5.42255 15.9187 5.42255 15.8906 5.31195 15.8906H4.34418C4.23358 15.9468 4.23358 15.9468 4.28888 16.0871Z" fill="white"></path><path d="M10.2349 20.1846C10.2349 19.7916 10.2626 19.3987 10.4838 19.0618C10.5391 18.9776 10.5944 18.8934 10.6497 18.8373C10.9262 18.5846 11.3686 18.4162 11.8387 18.5566V21.5881C10.9262 21.8969 10.2349 21.3074 10.2349 20.1846ZM11.8663 17.6022H11.4792C10.7326 17.6022 10.1243 17.9671 9.79252 18.3039C9.46071 18.6688 9.12891 19.3425 9.12891 20.0443C9.12891 20.8302 9.26716 21.4197 9.70957 21.925C10.0137 22.2899 10.5944 22.5987 11.2857 22.5987C11.6451 22.5987 11.9216 22.5706 12.2811 22.4864C12.447 22.4302 12.8617 22.318 12.9723 22.2057C12.9723 22.1495 12.9447 21.953 12.9447 21.8408C12.9447 21.4759 12.9447 20.9987 12.9447 20.6338V16.0302C12.9447 15.946 12.9447 15.918 12.8617 15.918H11.9493C11.811 15.918 11.8663 16.0022 11.8663 16.2548V17.6022Z" fill="white"></path></svg> 