<?xml version="1.0" encoding="UTF-8"?> <svg xmlns="http://www.w3.org/2000/svg" width="50" height="20" viewBox="0 0 50 20" fill="none"><path d="M13.5742 3.05469H15.6908V16.1928H13.5742V3.05469Z" fill="#0D99FF"></path><path d="M23.0515 12.0272C23.0515 14.0627 21.395 14.2477 20.8429 14.2477C19.5545 14.2477 19.3705 13.045 19.3705 12.3973V7.30859H17.2539V12.3048C17.2539 13.5076 17.622 14.6178 18.3582 15.2655C19.0024 15.9131 19.8306 16.1907 20.8429 16.1907C21.5791 16.1907 22.4993 16.0057 23.0515 15.4505V16.1907H25.168V7.30859H23.0515V12.0272Z" fill="#0D99FF"></path><path d="M29.3099 4.07422H27.1933V7.31249H25.6289V9.34797H27.1933V16.1946H29.3099V9.34797H30.8743V7.31249H29.3099V4.07422Z" fill="#0D99FF"></path><path d="M37.4999 13.509C37.0397 13.8791 36.3956 14.1567 35.7514 14.1567C34.279 14.1567 33.2667 13.0464 33.2667 11.5661C33.2667 10.0857 34.279 9.06796 35.7514 9.06796C36.3956 9.06796 37.0397 9.253 37.4999 9.71561L37.7759 9.99318L39.2483 8.60535L38.8802 8.32778C38.052 7.58761 36.9477 7.125 35.7514 7.125C33.1747 7.125 31.2422 9.06796 31.2422 11.6586C31.2422 14.2492 33.1747 16.1922 35.7514 16.1922C36.9477 16.1922 38.052 15.7295 38.8802 14.9894L39.2483 14.7118L37.7759 13.2314L37.4999 13.509Z" fill="#0D99FF"></path><path d="M46.6995 8.05088C46.0554 7.40322 45.4112 7.12566 44.3989 7.12566C43.6627 7.12566 42.9265 7.3107 42.3744 7.86583V3.05469H40.2578V16.1928H42.3744V11.2891C42.3744 9.25366 43.7547 9.06862 44.3069 9.06862C45.5952 9.06862 45.5032 10.2714 45.5032 10.9191V16.1003H47.6198V11.0116C47.6198 9.80879 47.3437 8.69853 46.6995 8.05088Z" fill="#0D99FF"></path><path d="M35.6599 13.1404C36.4731 13.1404 37.1323 12.4776 37.1323 11.66C37.1323 10.8425 36.4731 10.1797 35.6599 10.1797C34.8467 10.1797 34.1875 10.8425 34.1875 11.66C34.1875 12.4776 34.8467 13.1404 35.6599 13.1404Z" fill="#0D99FF"></path><path d="M10.6278 12.9551C9.89158 13.6953 8.78729 14.1579 7.59097 14.1579C5.29036 14.1579 3.63391 12.3075 3.63391 9.80937C3.63391 7.31127 5.29036 5.46083 7.68299 5.46083C8.78729 5.46083 9.89158 5.92344 10.7198 6.75614L10.9959 7.03371L12.3762 5.64588L12.1002 5.36831C10.9039 4.16553 9.33944 3.51787 7.68299 3.51787C4.18606 3.42535 1.60938 6.20101 1.60938 9.80937C1.60938 13.4177 4.18606 16.1934 7.59097 16.1934C9.24741 16.1934 10.9039 15.5457 12.0081 14.3429L12.2842 14.0654L10.9039 12.6775L10.6278 12.9551Z" fill="#0D99FF"></path></svg> 