<?xml version="1.0" encoding="UTF-8"?> <svg xmlns="http://www.w3.org/2000/svg" width="44" height="44" viewBox="0 0 44 44" fill="none"><path d="M28.8867 27.4123V16.3438H32.2828C32.8488 16.3438 33.2764 16.4737 33.5657 16.7337C33.855 16.9894 34.0479 17.35 34.1443 17.8154C34.2449 18.2766 34.2952 18.8195 34.2952 19.4442C34.2952 20.0479 34.2177 20.5301 34.0625 20.8907C33.9116 21.2512 33.6244 21.5007 33.2009 21.639C33.5489 21.7103 33.7921 21.8843 33.9305 22.161C34.073 22.4336 34.1443 22.7878 34.1443 23.2239V27.4123H31.962V23.0792C31.962 22.7564 31.8949 22.5572 31.7608 22.4818C31.6308 22.4021 31.4191 22.3623 31.1256 22.3623V27.4123H28.8867ZM31.1382 20.4441H31.6727C31.9788 20.4441 32.1318 20.1108 32.1318 19.4442C32.1318 19.0124 32.0983 18.7294 32.0312 18.5952C31.9641 18.461 31.8383 18.3939 31.6539 18.3939H31.1382V20.4441Z" fill="#0D99FF"></path><path d="M22.6719 27.4123V16.3438H25.5962C26.2084 16.3438 26.6926 16.48 27.049 16.7525C27.4096 17.0251 27.6674 17.4129 27.8225 17.916C27.9777 18.4191 28.0552 19.0187 28.0552 19.7146C28.0552 20.3855 27.9902 20.9703 27.8603 21.4692C27.7303 21.964 27.4976 22.3476 27.1622 22.6201C26.831 22.8926 26.3593 23.0289 25.7472 23.0289H24.8479V27.4123H22.6719ZM24.8479 21.0416H24.9736C25.3845 21.0416 25.6361 20.9263 25.7283 20.6957C25.8205 20.4651 25.8667 20.1255 25.8667 19.6769C25.8667 19.2576 25.8205 18.9348 25.7283 18.7084C25.6403 18.4778 25.4285 18.3625 25.0931 18.3625H24.8479V21.0416Z" fill="#0D99FF"></path><path d="M16.1914 27.4123V16.3438H19.2353C20.0319 16.3438 20.6314 16.566 21.0339 17.0104C21.4364 17.4506 21.6376 18.0963 21.6376 18.9474V24.1295C21.6376 25.1776 21.4532 25.9868 21.0842 26.557C20.7195 27.1272 20.078 27.4123 19.1598 27.4123H16.1914ZM18.4177 25.4564H18.8013C19.208 25.4564 19.4113 25.2594 19.4113 24.8653V19.1549C19.4113 18.786 19.361 18.5491 19.2604 18.4443C19.164 18.3353 18.9648 18.2807 18.663 18.2807H18.4177V25.4564Z" fill="#0D99FF"></path><path d="M12.0936 27.512C10.513 27.512 9.72266 26.38 9.72266 24.116V19.3426C9.72266 17.2757 10.6283 16.2422 12.4395 16.2422C13.1858 16.2422 13.7581 16.3931 14.1564 16.695C14.5547 16.9927 14.8293 17.4287 14.9802 18.0031C15.1312 18.5775 15.2066 19.2777 15.2066 20.1036H13.0432V19.1225C13.0432 18.8835 13.0097 18.6844 12.9426 18.5251C12.8797 18.3616 12.7455 18.2798 12.5401 18.2798C12.2844 18.2798 12.1146 18.3658 12.0307 18.5377C11.951 18.7096 11.9112 18.8982 11.9112 19.1037V24.4681C11.9112 24.7658 11.9489 25.009 12.0244 25.1977C12.1041 25.3821 12.2571 25.4744 12.4835 25.4744C12.7183 25.4744 12.8734 25.3821 12.9489 25.1977C13.0285 25.009 13.0684 24.7616 13.0684 24.4556V22.877H12.4772V20.9652H15.1815V27.4114H14.2947L13.9174 26.4806C13.5317 27.1682 12.9237 27.512 12.0936 27.512Z" fill="#0D99FF"></path><path d="M22.0004 0L22.7757 2.34211H25.2848L23.2549 3.78962L24.0303 6.13173L22.0004 4.68422L19.9705 6.13173L20.7458 3.78962L18.7159 2.34211H21.225L22.0004 0Z" fill="#0D99FF"></path><path d="M22.0004 37.2227L22.7757 39.5648H25.2848L23.2549 41.0123L24.0303 43.3544L22.0004 41.9069L19.9705 43.3544L20.7458 41.0123L18.7159 39.5648H21.225L22.0004 37.2227Z" fill="#0D99FF"></path><path d="M40.6122 18.5469L41.3732 20.9332H43.8358L41.8435 22.408L42.6045 24.7943L40.6122 23.3195L38.6199 24.7943L39.3809 22.408L37.3886 20.9332H39.8512L40.6122 18.5469Z" fill="#0D99FF"></path><path d="M3.38953 18.5469L4.15053 20.9332H6.61317L4.62086 22.408L5.38185 24.7943L3.38953 23.3195L1.39722 24.7943L2.15821 22.408L0.165896 20.9332H2.62854L3.38953 18.5469Z" fill="#0D99FF"></path><path d="M38.1176 27.8828L38.8929 30.2249H41.402L39.3721 31.6724L40.1475 34.0145L38.1176 32.567L36.0876 34.0145L36.863 31.6724L34.8331 30.2249H37.3422L38.1176 27.8828Z" fill="#0D99FF"></path><path d="M5.88318 9.33594L6.65853 11.678H9.16764L7.13773 13.1256L7.91308 15.4677L5.88318 14.0202L3.85327 15.4677L4.62862 13.1256L2.59871 11.678H5.10782L5.88318 9.33594Z" fill="#0D99FF"></path><path d="M31.2723 34.6641L32.0333 37.0504H34.496L32.5037 38.5252L33.2647 40.9115L31.2723 39.4367L29.28 40.9115L30.041 38.5252L28.0487 37.0504H30.5113L31.2723 34.6641Z" fill="#0D99FF"></path><path d="M12.7255 2.42969L13.4865 4.81599H15.9491L13.9568 6.2908L14.7178 8.67711L12.7255 7.20229L10.7332 8.67711L11.4942 6.2908L9.50183 4.81599H11.9645L12.7255 2.42969Z" fill="#0D99FF"></path><path d="M12.7255 34.6641L13.4865 37.0504H15.9491L13.9568 38.5252L14.7178 40.9115L12.7255 39.4367L10.7332 40.9115L11.4942 38.5252L9.50183 37.0504H11.9645L12.7255 34.6641Z" fill="#0D99FF"></path><path d="M31.2723 2.42969L32.0333 4.81599L34.496 4.81599L32.5037 6.2908L33.2647 8.67711L31.2723 7.20229L29.28 8.67711L30.041 6.2908L28.0487 4.81599H30.5113L31.2723 2.42969Z" fill="#0D99FF"></path><path d="M5.88318 27.8828L6.65853 30.2249H9.16764L7.13773 31.6724L7.91309 34.0145L5.88318 32.567L3.85327 34.0145L4.62862 31.6724L2.59871 30.2249H5.10782L5.88318 27.8828Z" fill="#0D99FF"></path><path d="M38.1176 9.33594L38.8929 11.678H41.402L39.3721 13.1256L40.1475 15.4677L38.1176 14.0202L36.0876 15.4677L36.863 13.1256L34.8331 11.678H37.3422L38.1176 9.33594Z" fill="#0D99FF"></path></svg> 