<?xml version="1.0" encoding="UTF-8"?> <svg xmlns="http://www.w3.org/2000/svg" width="41" height="35" viewBox="0 0 41 35" fill="none"><path d="M20.2921 31.9641C20.3075 33.0058 20.3229 33.7648 20.3383 34.1368C20.3537 34.1815 20.3537 34.241 20.3383 34.2857C20.3383 34.3452 20.3383 34.3898 20.3383 34.3898C20.3383 34.5982 20.3691 34.8065 20.4307 35C20.4923 34.8065 20.5231 34.5982 20.5231 34.3898C20.5231 34.3154 20.5539 33.2291 20.6001 31.4879C20.5847 31.5028 20.5693 31.5176 20.5693 31.5325C20.4615 31.6665 20.3691 31.8153 20.2921 31.9641ZM17.089 10.2365C17.3354 9.98354 17.5664 9.6859 17.7358 9.37338C17.6126 9.64125 17.1352 10.6532 17.5972 10.7425C18.1054 10.8318 18.6752 10.683 19.7069 9.41802C19.6761 7.7959 19.6453 6.38212 19.6299 5.31062H19.0755C19.0447 5.31062 19.0293 5.31062 18.9985 5.31062C18.6906 5.31062 18.1824 5.28086 17.8436 4.78976C17.474 4.25401 17.4586 3.70338 17.4432 3.30157C17.4278 2.72117 17.2738 1.66456 16.5192 1.06928C15.9956 0.667471 14.5789 0.354951 13.2699 0.860936C12.8387 1.02464 11.9764 1.45621 11.1294 1.85802C10.3594 2.23007 9.37386 2.69141 9.06587 2.69141C9.57405 2.46818 10.2516 2.14078 10.9908 1.73897C11.8378 1.29251 12.731 0.81629 13.1775 0.637707C14.0707 0.295424 15.7801 0.191251 16.6578 0.875818C17.4894 1.53062 17.6588 2.66164 17.6742 3.2718C17.6896 3.67361 17.705 4.16472 18.0284 4.65582C18.321 5.07251 18.783 5.07251 19.0601 5.07251H19.1217H19.6145C19.6145 4.93857 19.6145 4.81952 19.6145 4.68558C19.1217 4.71535 18.4134 4.74511 18.1054 4.10519C17.7358 3.33133 18.1362 1.35204 16.9042 0.518653C15.6723 -0.314733 13.7011 -0.106386 11.9456 0.875818C10.2054 1.84314 7.89551 3.1081 5.0466 4.20936C2.19769 5.31062 0.426747 5.75708 0.0879583 5.80172C-0.235431 5.86125 0.34975 6.0696 1.56631 6.09936C2.78287 6.12913 3.79924 6.03983 3.79924 6.03983L12.7309 2.11101C12.7309 2.11101 5.0312 5.81661 4.38442 6.21842C3.73764 6.62023 3.21406 6.75417 3.26026 7.12621C3.30645 7.49826 3.79924 7.45361 5.15439 7.42385C6.50955 7.39409 6.80214 7.27503 7.26413 7.14109C7.72611 7.00716 12.7309 4.77487 12.7309 4.77487C12.7309 4.77487 7.37192 7.34944 6.60195 7.94472C5.83197 8.53999 6.66354 8.73346 7.18713 8.74834C7.72611 8.76322 9.15826 8.68881 9.95904 8.30188C10.7598 7.91495 13.2545 6.36724 13.2545 6.36724C13.2545 6.36724 10.7906 8.07865 10.3132 8.46558C9.92824 8.7781 9.72805 9.04598 9.82044 9.37338C9.95904 9.79007 10.6982 9.74543 11.6838 9.40314C11.6838 9.40314 12.7002 9.06086 13.0851 8.73346C13.4701 8.39117 14.5481 7.4685 14.5481 7.4685C14.5481 7.4685 13.2699 8.74834 12.9465 9.29897C12.6386 9.8496 12.577 9.98354 12.7309 10.2961C12.9465 10.7425 14.5789 10.2812 15.0409 9.80495C15.3797 9.43291 15.7031 9.04598 15.9956 8.62928C15.9956 8.62928 15.5029 9.40314 15.3951 9.8496C15.2873 10.2961 15.1641 10.6532 15.6107 10.6979C16.1034 10.7723 16.5654 10.7872 17.089 10.2365ZM20.1381 20.3711C20.1843 20.3413 20.2305 20.3116 20.2767 20.2818C20.3691 20.2223 20.4461 20.1776 20.5077 20.1181C20.6309 20.0437 20.7541 19.9544 20.8773 19.88C20.8927 19.0317 20.9235 18.1686 20.9389 17.3203C20.6925 17.2161 20.4307 17.112 20.1535 17.0078C20.1381 17.0078 20.1227 16.9929 20.1073 16.9929C20.0765 16.978 20.0611 16.978 20.0303 16.9631C19.8455 16.9036 19.6761 16.8292 19.4759 16.7697C19.2449 16.6804 19.0139 16.606 18.783 16.5167C17.243 17.3054 16.935 17.6775 16.935 18.4067C16.935 19.4335 17.8436 19.8949 19.4143 20.8622C19.6607 20.6836 19.9071 20.5199 20.1381 20.3711ZM18.244 18.5406C18.244 18.5406 18.1362 17.8858 19.8763 17.1268C19.9225 17.112 19.9687 17.0822 20.0149 17.0673C20.0303 18.0942 20.0457 19.121 20.0765 20.1479C19.2141 19.5824 18.244 19.0466 18.244 18.5406ZM20.8773 31.1754C20.8003 31.2646 20.7233 31.3539 20.6463 31.4283C21.0929 32.0087 21.0621 32.5743 20.8157 33.3035C21.0467 33.0505 21.5087 32.4105 21.1237 31.5772C21.0467 31.4432 20.9697 31.3093 20.8773 31.1754ZM20.1689 25.0738C20.3383 25.2375 20.5385 25.4309 20.7387 25.6244C20.8619 25.7435 20.9851 25.8625 21.1237 25.9965C21.1391 26.0113 21.1699 26.0262 21.2007 26.056C22.2478 25.1779 23.2026 24.3446 23.2026 23.3028C23.2026 22.4843 22.3864 21.7402 21.5703 21.145C21.4933 21.1896 21.4163 21.2342 21.3393 21.2938C21.1545 21.4128 20.9851 21.517 20.8311 21.6212C20.8311 21.6212 20.8157 21.6212 20.8157 21.6361C20.7849 21.6658 20.7387 21.6807 20.7079 21.7105C20.4923 21.8593 20.2921 21.9932 20.1073 22.1272C20.1381 23.1242 20.1535 24.1213 20.1689 25.0738ZM20.8311 21.7849C21.8475 22.4992 22.2478 22.9605 22.2478 23.4665C22.2478 23.9874 21.6781 24.5976 20.7541 25.4905C20.7695 24.2999 20.8003 23.0647 20.8311 21.7849ZM26.4519 7.48338C26.4519 7.48338 27.5299 8.40606 27.9149 8.74834C28.2999 9.09062 29.3162 9.41802 29.3162 9.41802C30.3018 9.76031 31.041 9.80495 31.1796 9.38826C31.2874 9.06086 31.0718 8.7781 30.6868 8.48046C30.2094 8.09353 27.7455 6.38212 27.7455 6.38212C27.7455 6.38212 30.2402 7.92984 31.041 8.31676C31.8417 8.70369 33.2739 8.7781 33.8129 8.76322C34.3519 8.74834 35.168 8.55487 34.3981 7.9596C33.6281 7.36432 28.269 4.78976 28.269 4.78976C28.269 4.78976 33.2585 7.03692 33.7359 7.15598C34.1979 7.28991 34.4905 7.39409 35.8456 7.43873C37.2008 7.4685 37.6781 7.51314 37.7397 7.14109C37.8013 6.78393 37.2624 6.64999 36.6156 6.2333C35.9688 5.83149 28.269 2.1259 28.269 2.1259L37.2008 6.05472C37.2008 6.05472 38.2171 6.14401 39.4337 6.11424C40.6502 6.08448 41.2354 5.87613 40.912 5.81661C40.5887 5.75708 38.8023 5.3255 35.9534 4.22424C33.1045 3.12298 30.7946 1.87291 29.0544 0.8907C27.3143 -0.0766229 25.3277 -0.299851 24.0958 0.533535C22.8638 1.36692 23.2642 3.33133 22.8946 4.12007C22.5866 4.75999 21.8783 4.73023 21.3855 4.70046C21.3855 4.81952 21.3855 4.95346 21.3701 5.08739H21.8783H21.9399C22.217 5.08739 22.679 5.08739 22.9716 4.6707C23.295 4.19448 23.3104 3.6885 23.3258 3.28668C23.3412 2.67653 23.5106 1.5455 24.3422 0.8907C25.2199 0.206133 26.9293 0.310307 27.8225 0.65259C28.269 0.816291 29.1622 1.29251 30.0092 1.75385C30.7484 2.15566 31.4259 2.48306 31.9341 2.70629C31.6107 2.70629 30.6406 2.24495 29.8706 1.8729C29.039 1.45621 28.1767 1.03952 27.7301 0.875818C26.4211 0.369834 25.0044 0.682353 24.4808 1.08416C23.7108 1.67944 23.5722 2.73605 23.5568 3.31645C23.5414 3.71826 23.526 4.28377 23.1564 4.80464C22.833 5.29574 22.3248 5.3255 22.0015 5.3255C21.9707 5.3255 21.9553 5.3255 21.9245 5.3255H21.3701C21.3393 6.397 21.3085 7.7959 21.2777 9.38826C22.3248 10.683 22.9254 10.8467 23.4182 10.7425C23.8802 10.6532 23.4182 9.64125 23.2796 9.37338C23.4644 9.6859 23.68 9.96865 23.9264 10.2365C24.4346 10.7872 24.912 10.7723 25.3739 10.7127C25.8359 10.6532 25.6973 10.3109 25.5895 9.86448C25.4817 9.41802 24.989 8.64417 24.989 8.64417C25.2815 9.04598 25.6049 9.44779 25.9437 9.81983C26.4057 10.2961 28.0381 10.7723 28.2537 10.3109C28.3922 10.0133 28.346 9.86448 28.0381 9.31385C27.7455 8.76322 26.4519 7.48338 26.4519 7.48338ZM20.5231 2.92952C20.7695 2.92952 21.0159 2.85511 21.2161 2.72117C21.4163 2.58724 21.5857 2.39377 21.6781 2.18542C21.7705 1.9622 21.8013 1.72409 21.7551 1.48598C21.7089 1.24787 21.5857 1.03952 21.4163 0.860936C21.2469 0.697235 21.0159 0.57818 20.7695 0.533535C20.5231 0.488889 20.2767 0.503771 20.0457 0.607944C19.8147 0.697235 19.6145 0.860936 19.4913 1.0544C19.3527 1.24787 19.2757 1.48598 19.2757 1.72409C19.2757 1.88779 19.3065 2.03661 19.3681 2.18542C19.4297 2.33424 19.5221 2.46818 19.6453 2.57235C19.7685 2.69141 19.8917 2.7807 20.0457 2.84023C20.1843 2.89976 20.3537 2.92952 20.5231 2.92952ZM24.6194 11.9777C24.6194 11.9777 24.5886 11.1443 23.1872 11.055C21.7551 10.9657 21.6935 11.561 21.7243 11.7842C21.8321 11.7842 21.9245 11.814 21.9245 11.8438C21.9245 11.8735 21.8475 11.9033 21.7551 11.9033C21.8321 12.1265 22.0476 12.3944 22.6636 12.692C23.1718 12.9302 23.4182 12.9153 23.7108 12.8706C23.7108 12.8706 24.0496 13.0641 24.0496 13.3766C24.0496 13.6742 23.5106 14.2546 20.9851 15.475C21.1391 8.89716 21.2777 3.12298 21.2777 3.12298H21.4317C21.4933 3.12298 21.5549 3.09322 21.6011 3.04857C21.6473 3.00393 21.6781 2.9444 21.6781 2.88487V2.81046C21.6781 2.7807 21.6781 2.75094 21.6627 2.72117C21.6473 2.69141 21.6319 2.66164 21.6011 2.64676C21.4625 2.79558 21.3085 2.91464 21.1237 3.00393C20.9389 3.09322 20.7387 3.12298 20.5385 3.12298C20.3383 3.12298 20.1381 3.07834 19.9533 3.00393C19.7685 2.92952 19.5991 2.79558 19.4759 2.64676C19.4451 2.67653 19.4297 2.69141 19.4143 2.72117C19.3989 2.75094 19.3989 2.7807 19.3989 2.81046V2.88487C19.3989 2.9444 19.4297 3.00393 19.4759 3.04857C19.5221 3.09322 19.5837 3.12298 19.6453 3.12298H19.7993C19.7993 3.12298 19.9071 8.73346 20.0149 15.1922C20.2305 15.2964 20.4461 15.4005 20.6925 15.5196C20.7233 15.5345 20.7695 15.5494 20.8003 15.5642C21.3701 15.8321 21.8475 16.0553 22.2478 16.2637C23.603 15.7577 24.9274 15.1773 25.3277 14.3588C26.0361 12.8409 24.6194 11.9777 24.6194 11.9777ZM22.7406 11.6354C22.5866 11.6354 22.4634 11.561 22.4634 11.4717C22.4634 11.3824 22.5866 11.308 22.7406 11.308C22.8946 11.308 23.0178 11.3824 23.0178 11.4717C23.0178 11.561 22.8946 11.6354 22.7406 11.6354ZM20.2921 30.4759C20.4153 30.3271 20.5231 30.1783 20.6463 30.0443C20.6617 29.1961 20.6925 28.2436 20.7079 27.2168C20.5539 27.0679 20.3845 26.9191 20.1997 26.7554C20.1381 26.7108 20.0919 26.6513 20.0303 26.6066C19.9533 26.5322 19.8763 26.4727 19.7993 26.4131C19.3681 26.8001 18.5212 27.6632 18.5212 28.4073C18.5212 29.2853 19.3989 30.1783 20.0611 30.8182C20.1227 30.6842 20.1997 30.5801 20.2921 30.4759ZM20.1997 26.934C20.2305 28.199 20.2459 29.3598 20.2613 30.3568C19.7531 29.702 19.2141 29.0324 19.2141 28.571C19.2141 28.1394 19.4759 27.6483 20.1997 26.934ZM20.5539 15.7131C17.551 14.3142 16.935 13.6742 16.935 13.3617C16.935 13.0492 17.2738 12.8557 17.2738 12.8557C17.5664 12.9153 17.8128 12.9153 18.321 12.6772C18.9369 12.3944 19.1525 12.1116 19.2295 11.8884C19.1371 11.8884 19.0601 11.8587 19.0601 11.8289C19.0601 11.7991 19.1525 11.7694 19.2603 11.7694V11.7545C19.2757 11.5313 19.1987 10.9509 17.782 11.0402C16.3806 11.1294 16.3498 11.9628 16.3498 11.9628C16.3498 11.9628 14.9331 12.8409 15.6723 14.329C16.319 15.6535 19.3527 16.353 21.1083 17.112C22.8484 17.8709 22.7406 18.5257 22.7406 18.5257C22.7406 19.0913 21.5703 19.6865 20.6463 20.3116C19.7223 20.9366 17.7666 22.023 17.7666 23.3028C17.7666 24.4785 18.9831 25.3863 20.1689 26.3983C21.3701 27.4102 21.7551 28.0204 21.7551 28.5859C21.7551 29.3598 20.4307 30.4015 19.7531 31.6962C19.0755 32.9909 20.4153 35 19.9995 33.9434C19.5683 32.8868 19.7993 32.1427 20.3537 31.3986C21.0313 30.4908 22.4788 29.5979 22.4788 28.3924C22.4788 27.3805 20.9543 26.1899 20.9543 26.1899C19.5991 24.8803 18.7368 24.1362 18.7368 23.4814C18.7368 22.8266 19.3835 22.2462 21.2007 21.1003C23.0024 19.9693 24.065 19.5228 24.065 18.4216C24.065 17.4542 23.5568 17.112 20.5539 15.7131ZM18.244 11.3229C18.398 11.3229 18.5212 11.3973 18.5212 11.4866C18.5212 11.5759 18.398 11.6503 18.244 11.6503C18.09 11.6503 17.9668 11.5759 17.9668 11.4866C17.9668 11.3973 18.09 11.3229 18.244 11.3229Z" fill="#0D99FF"></path></svg> 