<svg xmlns="http://www.w3.org/2000/svg" xmlns:xlink="http://www.w3.org/1999/xlink" viewBox="0 0 134.447 34.766" overflow="visible"><g><path d="M 8.262 10.688 L 0 10.688 L 0 23.89 L 8.262 23.89 L 8.262 32.251 L 17.408 34.766 L 17.408 0 L 8.262 2.577 Z M 29.71 10.684 L 21.53 10.684 L 21.53 23.886 L 29.71 23.886 Z" fill="rgb(73,208,181)"></path><path d="M 88.993 24.15 C 88.315 25.877 87.778 27.042 87.026 27.713 C 86.361 28.315 85.529 28.573 84.159 28.607 L 83.353 28.607 C 83.311 28.608 83.271 28.591 83.241 28.562 C 83.211 28.533 83.194 28.493 83.193 28.451 L 83.193 25.775 C 83.193 25.701 83.253 25.62 83.353 25.62 L 84.099 25.62 C 84.509 25.613 84.777 25.593 85.025 25.39 C 85.28 25.173 85.508 24.76 85.817 23.967 L 85.877 23.817 L 80.668 10.895 C 80.638 10.82 80.635 10.765 80.668 10.725 C 80.71 10.673 80.784 10.678 80.809 10.678 L 83.783 10.678 C 83.863 10.678 83.92 10.711 83.944 10.766 L 87.509 19.903 L 91.06 10.773 C 91.087 10.698 91.154 10.671 91.235 10.678 L 94.206 10.678 C 94.235 10.678 94.307 10.67 94.347 10.725 C 94.383 10.771 94.374 10.827 94.35 10.89 Z M 76.712 23.878 C 76.646 23.88 76.585 23.846 76.551 23.79 L 73.644 19.618 L 70.824 23.641 L 70.69 23.811 C 70.65 23.865 70.59 23.878 70.53 23.878 L 67.478 23.878 C 67.409 23.878 67.368 23.865 67.338 23.821 C 67.298 23.757 67.336 23.684 67.354 23.656 L 67.884 22.916 L 71.972 17.18 L 67.578 10.897 C 67.546 10.848 67.53 10.787 67.563 10.734 C 67.595 10.681 67.657 10.677 67.711 10.677 L 71.026 10.677 C 71.086 10.677 71.12 10.725 71.153 10.779 L 73.778 14.579 L 76.504 10.759 C 76.542 10.708 76.601 10.677 76.665 10.677 L 79.691 10.677 C 79.771 10.677 79.809 10.689 79.839 10.734 C 79.871 10.784 79.859 10.846 79.824 10.897 L 75.484 17.017 L 80.114 23.653 C 80.147 23.699 80.162 23.762 80.128 23.816 C 80.086 23.885 79.981 23.878 79.914 23.878 Z M 41.48 12.299 C 40.197 13.593 39.5 15.374 39.5 17.304 C 39.5 21.558 42.762 24.186 45.776 24.186 C 47.455 24.186 48.609 23.739 49.468 22.743 L 49.468 23.725 C 49.468 23.813 49.535 23.881 49.623 23.881 L 52.395 23.881 C 52.436 23.882 52.476 23.865 52.506 23.836 C 52.535 23.806 52.551 23.766 52.55 23.725 L 52.55 6.155 C 52.551 6.114 52.534 6.074 52.505 6.045 C 52.476 6.016 52.436 5.999 52.395 6 L 49.629 6 C 49.588 6 49.548 6.016 49.519 6.046 C 49.49 6.075 49.474 6.115 49.475 6.156 L 49.475 11.872 C 48.804 11.215 47.622 10.402 45.783 10.402 C 43.196 10.402 41.48 12.299 41.48 12.299 Z M 42.513 17.304 C 42.513 12.946 46.085 13.139 46.085 13.139 C 46.085 13.139 49.656 12.966 49.656 17.298 C 49.656 21.571 46.105 21.497 46.105 21.497 C 46.105 21.497 42.513 21.571 42.513 17.304 Z M 67.385 17.307 C 67.444 15.141 66.66 13.318 65.291 12.072 L 65.291 12.079 L 65.284 12.079 C 64.122 11.029 62.504 10.412 60.833 10.399 L 60.806 10.399 C 59.161 10.399 57.611 10.954 56.443 11.97 L 56.322 12.072 C 54.952 13.312 54.227 15.127 54.227 17.308 C 54.227 19.488 54.952 21.297 56.322 22.536 C 57.49 23.593 59.122 24.196 60.806 24.196 C 60.806 24.196 67.192 24.431 67.386 17.307 Z M 64.431 17.28 C 64.431 21.651 60.8 21.514 60.8 21.514 C 60.8 21.514 57.174 21.651 57.174 17.28 C 57.174 12.95 60.806 13.101 60.806 13.101 C 60.806 13.101 64.431 12.95 64.431 17.281 Z M 123.263 22.295 C 124.562 23.564 126.23 24.165 128.197 24.165 C 128.197 24.165 130.124 24.167 131.579 23.302 C 132.124 22.967 132.621 22.56 133.057 22.092 C 133.467 21.652 133.781 21.193 134.031 20.649 C 134.116 20.465 133.924 20.426 133.924 20.426 L 131.5 19.762 C 131.386 19.735 131.332 19.742 131.265 19.843 C 130.081 21.658 128.076 21.543 128.076 21.543 C 124.665 21.471 124.438 18.203 124.438 18.203 L 134.242 18.203 C 134.383 18.203 134.447 18.149 134.447 18 L 134.447 17.642 C 134.447 14.302 132.776 12.522 132.776 12.522 C 131.608 11.112 129.956 10.374 128.003 10.374 C 124.872 10.374 123.263 12.244 123.263 12.244 C 122.035 13.476 121.357 15.224 121.357 17.161 C 121.357 17.161 121.163 20.211 123.263 22.295 Z M 131.48 15.867 L 124.438 15.867 C 124.619 14.716 125.317 13.984 125.848 13.564 C 126.378 13.144 127.237 12.867 128.009 12.867 C 128.781 12.867 129.574 13.157 130.205 13.666 C 130.205 13.666 131.245 14.424 131.493 15.867 Z M 115.144 10.38 C 114.486 10.373 113.834 10.501 113.227 10.756 C 111.703 11.494 111.058 12.55 111.058 12.55 C 110.676 11.913 110.222 11.406 109.583 11.007 C 108.966 10.622 108.064 10.374 107.286 10.374 C 106.507 10.374 105.741 10.539 105.151 10.796 C 104.559 11.044 104.043 11.443 103.654 11.954 L 103.654 10.837 C 103.658 10.751 103.592 10.678 103.506 10.674 L 100.78 10.674 C 100.738 10.675 100.698 10.693 100.669 10.723 C 100.64 10.754 100.625 10.795 100.626 10.837 L 100.626 23.727 C 100.626 23.807 100.7 23.875 100.78 23.875 L 103.486 23.875 C 103.587 23.875 103.64 23.828 103.64 23.726 L 103.64 16.88 C 103.64 15.627 103.848 14.672 104.251 14.035 C 104.708 13.296 105.399 12.937 106.379 12.937 C 106.379 12.937 107.641 12.91 108.219 13.96 C 108.541 14.543 108.561 15.484 108.561 16.324 L 108.561 23.72 C 108.56 23.76 108.575 23.799 108.602 23.829 C 108.63 23.858 108.669 23.874 108.709 23.875 L 111.428 23.875 C 111.508 23.875 111.575 23.801 111.575 23.726 L 111.575 16.88 C 111.575 15.633 111.783 14.678 112.186 14.035 C 112.643 13.296 113.334 12.937 114.314 12.937 C 114.314 12.937 115.585 12.903 116.154 13.96 C 116.538 14.675 116.496 15.342 116.496 16.324 L 116.496 23.714 C 116.496 23.822 116.556 23.876 116.664 23.876 L 119.363 23.876 C 119.457 23.876 119.517 23.809 119.517 23.714 L 119.517 15.329 C 119.517 14.015 119.255 13.324 118.885 12.633 C 118.402 11.785 117.655 11.26 117.655 11.26 C 116.573 10.427 115.29 10.389 115.29 10.389 M 95.618 24.39 C 95.085 24.39 94.628 24.198 94.246 23.817 C 93.874 23.458 93.667 22.962 93.674 22.445 C 93.674 21.912 93.864 21.455 94.246 21.073 C 94.605 20.701 95.101 20.494 95.618 20.501 C 96.151 20.501 96.608 20.691 96.99 21.073 C 97.371 21.455 97.562 21.913 97.562 22.445 C 97.562 22.798 97.472 23.122 97.292 23.417 C 97.122 23.71 96.88 23.955 96.59 24.13 C 96.302 24.303 95.978 24.39 95.618 24.39 Z" fill="rgb(35,35,35)"></path></g></svg>
