<svg viewBox="0 0 152 44" xmlns="http://www.w3.org/2000/svg"><path opacity=".8" d="M21.35 19.49h-8.37V11H8.37v8.49H0v4.68h8.37v8.49h4.61v-8.5h8.37V19.5Z" fill="#143566"/><path d="M25.96 11h-4.61v21.66h4.61V11ZM40.48 16.67a8.4 8.4 0 0 0-4.44-1.18c-1.6 0-3.06.38-4.36 1.15a8.15 8.15 0 0 0-3.07 3.17 9.2 9.2 0 0 0-1.11 4.5c0 1.64.37 3.13 1.12 4.48a8.25 8.25 0 0 0 7.43 4.34 8.36 8.36 0 0 0 8.15-5.95h-4.67c-.34.6-.81 1.07-1.42 1.42-.61.34-1.3.5-2.06.5a4 4 0 0 1-2.69-.9 4.23 4.23 0 0 1-1.35-2.62h12.46a9.66 9.66 0 0 0-.97-5.73 8.02 8.02 0 0 0-3.02-3.18Zm-8.35 5.82c.25-1 .73-1.77 1.41-2.33a3.86 3.86 0 0 1 2.5-.83c1 0 1.86.27 2.56.82.7.54 1.2 1.32 1.5 2.34h-7.97ZM59.84 17.52a7.8 7.8 0 0 0-5.4-2.04A8.7 8.7 0 0 0 50 16.62a8.1 8.1 0 0 0-3.1 3.16 9.12 9.12 0 0 0-1.11 4.5c0 1.65.37 3.16 1.12 4.52a8.1 8.1 0 0 0 3.1 3.18 8.66 8.66 0 0 0 4.41 1.14c2.06 0 3.83-.66 5.33-1.99l.4 1.5h3.5v-16.7h-3.34l-.48 1.6ZM58 27.55a4.3 4.3 0 0 1-3.2 1.3c-1.3 0-2.37-.43-3.22-1.3a4.5 4.5 0 0 1-1.27-3.27c0-1.31.43-2.4 1.27-3.27a4.3 4.3 0 0 1 3.21-1.31c1.3 0 2.36.43 3.21 1.3a4.5 4.5 0 0 1 1.27 3.28c0 1.32-.42 2.4-1.27 3.27ZM70.78 11h-4.45v21.66h4.45V11ZM78.39 27.98a2.58 2.58 0 0 1-.66-1.9v-6.5h4.47v-3.63h-4.54V11h-4.38v15.7c0 1.84.53 3.3 1.58 4.36a5.73 5.73 0 0 0 4.28 1.6h3.15v-4.02h-2.02c-.82 0-1.45-.22-1.88-.66ZM94.65 15.56c-1.98 0-3.63.65-4.97 1.95V11h-4.46v21.66h4.46v-8.78c0-1.34.33-2.41 1-3.2a3.36 3.36 0 0 1 2.69-1.16c.99 0 1.72.3 2.18.92.46.61.69 1.55.69 2.82v9.4h4.45V22.5c0-2.14-.54-3.83-1.63-5.08a5.55 5.55 0 0 0-4.41-1.87ZM115.6 11H99.12v4.35h5.92v17.3h4.62v-17.3h5.94V11Z" fill="#143566"/><path d="M127.14 17.52a7.8 7.8 0 0 0-5.4-2.04 8.7 8.7 0 0 0-4.42 1.14 8.1 8.1 0 0 0-3.1 3.16 9.12 9.12 0 0 0-1.11 4.5c0 1.65.37 3.16 1.11 4.52a8.1 8.1 0 0 0 3.1 3.18 8.66 8.66 0 0 0 4.42 1.14c2.06 0 3.83-.66 5.33-1.99l.39 1.5h3.5v-16.7h-3.34l-.48 1.6Zm-1.84 10.03a4.3 4.3 0 0 1-3.2 1.3c-1.3 0-2.36-.43-3.21-1.3a4.5 4.5 0 0 1-1.27-3.27c0-1.31.42-2.4 1.27-3.27a4.3 4.3 0 0 1 3.2-1.31c1.3 0 2.37.43 3.21 1.3a4.5 4.5 0 0 1 1.28 3.28c0 1.32-.42 2.4-1.28 3.27ZM150.15 19.79a8.13 8.13 0 0 0-3.09-3.17 8.67 8.67 0 0 0-4.42-1.14c-2.04 0-3.8.67-5.28 2l-.76-1.53h-2.93v21.6h4.45v-5.8a7.76 7.76 0 0 0 4.52 1.4c1.63 0 3.1-.38 4.42-1.14a8.11 8.11 0 0 0 3.09-3.18 9.25 9.25 0 0 0 1.11-4.53 9.2 9.2 0 0 0-1.11-4.51Zm-4.67 7.8a4.3 4.3 0 0 1-3.2 1.3c-1.3 0-2.37-.44-3.22-1.31a4.5 4.5 0 0 1-1.27-3.28c0-1.3.43-2.4 1.27-3.26a4.28 4.28 0 0 1 3.21-1.31c1.3 0 2.36.43 3.21 1.3a4.5 4.5 0 0 1 1.27 3.27 4.5 4.5 0 0 1-1.27 3.28Z" fill="#143566"/></svg>
