<?xml version="1.0" encoding="UTF-8"?>
<svg id="Layer_1" xmlns="http://www.w3.org/2000/svg" version="1.1" viewBox="0 0 1182.62 245.68">
  <!-- Generator: Adobe Illustrator 29.3.1, SVG Export Plug-In . SVG Version: 2.1.0 Build 151)  -->
  <defs>
    <style>
      .st0 {
        fill: #6c89c8;
      }

      .st1 {
        fill: #3e4a4f;
      }
    </style>
  </defs>
  <path class="st0" d="M302.66,42.53c-2.84-1.45-45.39.29-48.46.69-1.33.17-2.51.42-3.43.73-6.94,2.37,3.41,11.12,5.78,14.84,22.72,35.66-30.29,103.19-44.03,106.13-3.7.79-3.75-4.91-3.75-4.91l-.54-35.39c-.4-10.78-1.22-69.34-9.96-77.84-11.26-10.95-32.47-2.41-43.95,4.43-29.78,17.73-48.48,52.6-51.54,53.29-1.45.32-1.15-2.78-1.11-3.1.87-8.03,13.54-53.93,4.65-57.55-9.61-3.92-33.89,4.32-43.23,9.03-2.1,1.06-11.89,6.39-10.07,9.45.31.56,5.07,3.44,5.92,4.24,6.86,6.32,8.74,10.94,7.57,20.23-3.19,25.42-19.36,106.69-20.15,119.23-.23,3.71.51,5.2,4.14,6.45,6.05,2.08,21.63.71,29.46-.58,2.75-.45,4.92-2.57,5.41-5.31,2.71-15.16,9.09-53.71,25.79-81.92,21.12-35.69,33.84-39.51,41.06-39.85,8.61-.4,12.66,4.21,13.37,8.77,1.57,10.02.85,68.53,3.35,104.33.87,12.4,5.04,17.91,18.24,13.94,29.78-8.92,62.99-59.59,78.32-85.55,11.42-19.35,38.35-72.51,39.42-76.58.81-3.09.72-5.68-2.27-7.21Z"/>
  <g>
    <path class="st1" d="M604.25,174.38c-1.62-19.75,4.01-53.92-5.55-70.79-6.95-12.26-25.75-15.15-38.35-12.54-12.38,2.56-33.76,14.27-32.33,29.16,1.34,13.96,24.36,8.86,24.64-4.91.08-3.97-6.4-8.18-1.96-11.72,3.71-2.96,14.38-3.38,18.91-2.21,7.44,1.92,10.91,9.82,11.52,16.88.33,3.77.51,12.14.07,15.75-.08.66.06,1.36-.6,1.81-21.71,6.06-63.12,13.49-54.62,45.27,4.39,16.41,21.71,20.53,36.36,15.44,6.85-2.38,12.67-7.02,18.67-10.89,6.6,11.04,18.01,14.44,29.79,9.05,4.57-2.1,11.86-7.1,10.41-12.84-8.98,1.21-15.99,4.43-16.96-7.46ZM579.69,171.63c-4.77,13.28-27.5,19.98-31.33,3.28-4.82-21.02,16.74-27.77,32.84-31.56,0,0,.7,22.14-1.51,28.29Z"/>
    <path class="st1" d="M831.44,88.56c-52.19,3.73-71.14,73.31-26.27,100.66,46.68,28.46,98.34-22.37,74.53-70.23-8.65-17.39-28.2-31.87-48.27-30.43ZM857.59,165.27c-7.62,29.44-37.52,33.12-47.95,3.41-7.05-20.07-6.6-68.74,21.38-72.38,8.04-1.05,16.11,6.1,20.02,12.52,9.02,14.82,10.84,39.88,6.55,56.45Z"/>
    <path class="st1" d="M450.49,134.48l62.22-.23c4.03-.01,2.41-9.93,1.89-12.21-9.11-40.17-58.27-41.86-79.24-10.4-12.72,19.08-12.67,48.67,0,67.78,16.23,24.47,53.52,25.35,72.37,3.45,2.72-3.16,10.9-13.2,6.23-16.6-.55-.4-1.33-.25-1.78.25-9.59,10.53-19.18,16.89-34.32,15.57-18.25-1.59-27.07-22.24-28.23-38.25-.12-1.63-.52-8.93.87-9.36ZM479.25,99.45c7.47,4.02,11.94,16.28,12,24.34,0,.67-.3,2.08-.92,2.08l-40.17.15c.63-13.55,13.19-35.14,29.09-26.58Z"/>
    <path class="st1" d="M1133.83,165.7c-9.84,11.01-19.52,17.73-35.05,16.38-18.25-1.59-27.08-22.24-28.23-38.25-.12-1.63-.52-8.93.87-9.36l62.22-.23c4.03-.01,2.41-9.93,1.89-12.21-9.11-40.17-58.27-41.86-79.24-10.4-12.72,19.08-12.67,48.67,0,67.78,16.23,24.47,53.52,25.35,72.37,3.45,2.89-3.36,11.96-14.51,5.17-17.17ZM1100.17,99.45c7.47,4.02,11.94,16.28,12,24.34,0,.67-.3,2.08-.92,2.08l-40.17.15c.63-13.55,13.19-35.14,29.09-26.58Z"/>
    <path class="st1" d="M787.21,96.34l.78-5c.08-.54-.33-1.03-.89-1.03l-38.06-.04c-.62,0-1.15.43-1.28,1.03,0,0-.62,2.79-.67,3.18v.06s0,0,0,0c-.53,5.95,10.88,3.28,12.59,8.58,1.24,3.87-2.98,15.41-4.46,19.7-5.03,14.59-16.79,45.33-16.79,45.33h-1.79s-13.13-33.64-19.52-49.44c-1.67-4.12-5.67-12.42-4.87-16.55.58-2.96,7.27-3.8,10.83-3.97.7-.04,1.27-.57,1.36-1.27.2-1.63.53-4.46.69-5.85.05-.43-.29-.81-.72-.81l-50.89.04c-1.11,0-1.98.93-1.91,2.04,0,0,.09,1.87.11,2.1.43,5.72,5,4.2,8.81,6.33,6.02,3.37,12.99,20.95,16.12,27.67l29.19,68.49c.43.98,1.4,1.61,2.47,1.61h4.75c1.14,0,2.16-.72,2.55-1.8,3.5-9.88,23.91-58.89,36.36-89.23,3.21-7.82,11.02-9.52,13.95-9.89.68-.09,1.22-.61,1.32-1.29Z"/>
    <path class="st1" d="M1052.75,96.34l.78-5c.08-.54-.33-1.03-.89-1.03l-38.06-.04c-.62,0-1.15.43-1.28,1.03,0,0-.62,2.79-.67,3.18v.06s0,0,0,0c-.53,5.95,10.88,3.28,12.59,8.58,1.24,3.87-2.98,15.41-4.46,19.7-5.03,14.59-16.79,45.33-16.79,45.33h-1.79s-13.13-33.64-19.52-49.44c-1.67-4.12-5.67-12.42-4.87-16.55.58-2.96,7.27-3.8,10.83-3.97.7-.04,1.27-.57,1.36-1.27.2-1.63.53-4.46.69-5.85.05-.43-.29-.81-.72-.81l-50.89.04c-1.11,0-1.98.93-1.91,2.04,0,0,.09,1.87.11,2.1.43,5.72,5,4.2,8.81,6.33,6.02,3.37,12.99,20.95,16.12,27.67l29.19,68.49c.43.98,1.4,1.61,2.47,1.61h4.75c1.14,0,2.16-.72,2.55-1.8,3.5-9.88,23.91-58.89,36.36-89.23,3.21-7.82,11.02-9.52,13.95-9.89.68-.09,1.22-.61,1.32-1.29Z"/>
    <path class="st1" d="M413.6,90.07c-15.9-2.89-24.61,10.96-30.89,22.92l-1.82-1.51-.67-19.84c-.35-2.18-2.62-1.31-4.56-.83-.53.13-31.35,12.48-31.35,12.48-1.41.58-2.47,1.89-2.48,3.42-.03,4.21,6.91,2.17,10.25,2.91,3.95.87,6.2,8.06,6.55,11.6,2.03,21.44-1.46,62.13-1.46,62.13-.72,3.58-3.86,6.17-7.51,6.17h-4c-.77,0-1.39.56-1.49,1.31l-.34,3.21c-.09.88.59,1.64,1.48,1.64h51.99c.8,0,1.44-.66,1.41-1.46l-.12-3.32c-.03-.73-.61-1.32-1.34-1.36l-6.14-.3h-.02c-1.3-.05-2.58-.18-3.69-.62-4.3-1.71-5.4-10.84-5.66-14.9-.64-9.51-1.48-41.49.72-49.28,1.36-4.82,8.53-12.98,13.42-14.35,8.88-2.53,10.61,4.28,17.44,5.13,3.23.41,7.02.43,9.51-1.85,7.32-6.76-.25-21.67-9.2-23.3Z"/>
    <path class="st1" d="M673.73,188s-6.39-.72-7.05-1c-3.65-1.5-4.69-5.53-4.69-8.32l-.54-143.28c-.02-2.21-2.21-3.72-4.28-2.95l-20.05,7.56-.12.05-15.59,5.71c-.23,6.15,5.37,4.87,9.53,6.74,5.51,2.48,6.17,7.66,6.91,13.06l.39,107.21c0,.31-.07,9.48-2.97,13.03-1.64,2-6.02,2.33-8.01,2.36-.59.02-1.07.44-1.16,1.03l-.77,5.17c-.12.74.46,1.39,1.2,1.39h46.84c.67,0,1.23-.52,1.28-1.18l.28-5.14c.06-.73-.48-1.38-1.21-1.45Z"/>
    <path class="st1" d="M936.17,187.88s-6.39-.72-7.05-1c-3.65-1.5-4.69-5.53-4.69-8.32l-.54-143.28c-.02-2.21-2.21-3.72-4.28-2.95l-20.05,7.56-.12.05-15.59,5.71c-.23,6.15,5.37,4.87,9.53,6.74,5.51,2.48,6.17,7.66,6.91,13.06l.39,107.21c0,.31-.07,9.48-2.97,13.03-1.64,2-6.02,2.33-8.01,2.36-.59.02-1.07.44-1.16,1.03l-.77,5.17c-.12.74.46,1.39,1.2,1.39h46.84c.67,0,1.23-.52,1.28-1.18l.28-5.14c.06-.73-.48-1.38-1.21-1.45Z"/>
  </g>
</svg>