<svg xmlns="http://www.w3.org/2000/svg" viewBox="0 0 1920 304.5"><defs><style>.bb747b4a-0536-42ee-89f2-678cf54fb34c{fill:#00b74f;}.a87ace00-8c6e-45b0-b8b4-93a93c20ef9c{fill:#12312b;}</style></defs><g id="a7ab2e03-c8c1-41b0-8773-32dbab2cb0dc" data-name="Layer 2"><g id="f00fb4ed-645c-4265-bfe4-f013501d6a23" data-name="Layer 1"><path class="bb747b4a-0536-42ee-89f2-678cf54fb34c" d="M207.1,8.4c-.1-1.8-.3-3.6-.4-5.4-4.3-.5-10.3-1-17.4-1.4C154.6-.1,72.7-7.4,32.5,32.7,3.8,61.4-5.2,113.7,2.8,206.9c22.8,1.9,43.2,2.9,61.4,2.7,2.1-46.8,12.6-77.2,32.1-96.7C117.9,91.2,153,80.8,209,80.4A702.6,702.6,0,0,0,207.1,8.4Z"></path><path class="bb747b4a-0536-42ee-89f2-678cf54fb34c" d="M271.3,94h0l-.9-10.9c-10.1-.9-20.6-1.7-31.6-2.1s-20.3-.6-29.8-.6c-2.1,46.8-12.5,77.2-32,96.7-21.7,21.7-56.8,32.1-112.8,32.5-1,22-.2,47.6,2.3,77.5C159.7,295,212,286,240.7,257.3S277.6,180.4,271.3,94Z"></path><path class="a87ace00-8c6e-45b0-b8b4-93a93c20ef9c" d="M1488.4,195.9a30.5,30.5,0,0,1-15,3.9c-18.8,0-27.9-11.5-27.9-29.3V109.8h46.6V84.7h-46.6V50.8h-29.6V84.7h-24.8v25.1h24.8v60.7c0,35.2,20.5,57.2,56.5,57.2a57.5,57.5,0,0,0,29.7-8.2Z"></path><path class="a87ace00-8c6e-45b0-b8b4-93a93c20ef9c" d="M325.9,203l19.6-16.1c11.1,9.8,23.7,17.1,39,17.1,17.1,0,25.9-8.7,25.9-18.8,0-13-15-16.4-30.7-20.6-22-5.6-47.9-12.6-47.9-42.3,0-27.2,22.4-43.2,51-43.2,23,0,41.9,10.4,52,23.7l-19.5,16.1c-9.1-10.5-20.3-15.4-31.8-15.4-15.7,0-23.7,8.7-23.7,18.1,0,12.3,14.3,15.7,30,19.9,22.3,5.6,47.1,12.2,47.1,41.2,0,26.5-20.6,45.4-54.5,45.4C358.4,228.1,339.5,218.3,325.9,203Z"></path><path class="a87ace00-8c6e-45b0-b8b4-93a93c20ef9c" d="M594.1,141.2v82.3H564.8V147.8c0-24.8-11.2-40.8-33.5-40.8S488,125.8,488,153.1v70.4H458.3V21.8H488v80.6c11.9-14.3,29.7-22.6,50.6-22.6C572.8,79.8,594.1,103.1,594.1,141.2Z"></path><path class="a87ace00-8c6e-45b0-b8b4-93a93c20ef9c" d="M612.8,153.7c0-42.9,31.1-73.9,74.7-73.9s74.3,30.7,74.3,73.6-31.4,74.3-74.7,74.3S612.8,196.7,612.8,153.7Zm119.4,0c0-27.2-18.9-46.4-45.1-46.4s-44.6,19.2-44.6,46.1,18.8,46.8,45,46.8S732.2,181,732.2,153.7Z"></path><path class="a87ace00-8c6e-45b0-b8b4-93a93c20ef9c" d="M928.5,153.7c0,43-31,74-69.1,74-20.9,0-38-8.7-49.2-23.7v72.2H780.5V84h29.7v19.5c11.2-15,28.3-23.7,49.2-23.7C897.5,79.8,928.5,110.8,928.5,153.7Zm-29.3,0c0-30-21.3-46.7-45-46.7s-45.4,17.4-45.4,47.1,21.6,46.4,45,46.4S899.2,183.8,899.2,153.7Z"></path><path class="a87ace00-8c6e-45b0-b8b4-93a93c20ef9c" d="M1217.9,162.5h-111c3.9,23.4,21,41.5,48.5,41.5,16.8,0,30.8-6.6,42.6-16.4l16.1,17.4c-14.3,14.4-36.3,22.7-60.1,22.7-45,0-75.7-31-75.7-74.3s30.4-73.6,73.3-73.6c40.5,0,67.4,25.8,67.4,68A121.5,121.5,0,0,1,1217.9,162.5Zm-110.3-23.8h84.1c-3.5-22.6-19.2-35.2-40.1-35.2S1112.9,116.8,1107.6,138.7Z"></path><path class="a87ace00-8c6e-45b0-b8b4-93a93c20ef9c" d="M1377.6,141.2v82.3H1348V147.8c0-24.4-11.2-40.8-33.2-40.8-24.1,0-43.3,18.8-43.3,46.1v70.4h-29.6V84h29.6v18.8c12.2-14.7,30-23,51-23C1356,79.8,1377.6,103.1,1377.6,141.2Z"></path><path class="a87ace00-8c6e-45b0-b8b4-93a93c20ef9c" d="M1767.6,81.5v29.7h-7c-29.6,0-56.1,18.5-56.1,55.8v56.5h-29.7V84h29.7v31.7C1717.4,94.1,1739,81.5,1767.6,81.5Z"></path><path class="a87ace00-8c6e-45b0-b8b4-93a93c20ef9c" d="M1920,84V227.7c0,48.5-26.9,76.8-72.2,76.8-23.4,0-47.9-8.4-63.2-27.9l21.3-19.2c10.1,12.2,25.8,18.8,42.2,18.8,26.5,0,42.2-17.8,42.2-48.5v-23c-12.2,14.3-30,23-50.9,23-33.5,0-54.8-23.7-54.8-61.4V84h29.7v75.7c0,24.4,10.8,40.8,32.8,40.8,23.7,0,43.2-18.8,43.2-46.1V84Z"></path><path class="a87ace00-8c6e-45b0-b8b4-93a93c20ef9c" d="M1503.6,153.7c0-42.9,31-73.9,74.6-73.9s74.4,30.7,74.4,73.6-31.4,74.3-74.7,74.3S1503.6,196.7,1503.6,153.7Zm119.3,0c0-27.2-18.8-46.4-45-46.4s-44.7,19.2-44.7,46.1,18.9,46.8,45,46.8S1622.9,181,1622.9,153.7Z"></path><path class="a87ace00-8c6e-45b0-b8b4-93a93c20ef9c" d="M1077.4,84l-57.9,139.5H987.4L929.4,84h32.5l41.5,109.5L1045.3,84Z"></path></g></g></svg>